<mxfile host="app.diagrams.net" modified="2024-05-25T18:39:11.996Z" agent="Mozilla/5.0 (Windows NT 10.0; Win64; x64) AppleWebKit/537.36 (KHTML, like Gecko) Chrome/123.0.0.0 Safari/537.36 OPR/109.0.0.0 (Edition std-1)" etag="3dkN6J9axIES4w8Sk7Ob" version="24.4.4" type="google">
  <diagram id="C5RBs43oDa-KdzZeNtuy" name="Page-1">
    <mxGraphModel grid="1" page="1" gridSize="10" guides="1" tooltips="1" connect="1" arrows="1" fold="1" pageScale="1" pageWidth="827" pageHeight="1169" math="0" shadow="0">
      <root>
        <mxCell id="WIyWlLk6GJQsqaUBKTNV-0" />
        <mxCell id="WIyWlLk6GJQsqaUBKTNV-1" parent="WIyWlLk6GJQsqaUBKTNV-0" />
        <mxCell id="vqzQjOvbiEpnRjIR0hkx-38" value="&lt;font size=&quot;1&quot; style=&quot;&quot;&gt;&lt;u style=&quot;font-size: 26px;&quot;&gt;Diagrama de contexto&lt;/u&gt;&lt;/font&gt;" style="text;html=1;align=center;verticalAlign=middle;resizable=0;points=[];autosize=1;strokeColor=none;fillColor=none;" vertex="1" parent="WIyWlLk6GJQsqaUBKTNV-1">
          <mxGeometry x="280" y="169" width="280" height="40" as="geometry" />
        </mxCell>
        <mxCell id="X6bJpdG1tZHN0fjaIO-0-0" style="edgeStyle=orthogonalEdgeStyle;rounded=0;orthogonalLoop=1;jettySize=auto;html=1;entryX=1;entryY=0.5;entryDx=0;entryDy=0;exitX=0.037;exitY=0.69;exitDx=0;exitDy=0;exitPerimeter=0;" edge="1" parent="WIyWlLk6GJQsqaUBKTNV-1" target="X6bJpdG1tZHN0fjaIO-0-11">
          <mxGeometry relative="1" as="geometry">
            <mxPoint x="385.56999999999994" y="473.9000000000001" as="sourcePoint" />
            <mxPoint x="222.46000000000004" y="473.88" as="targetPoint" />
            <Array as="points">
              <mxPoint x="270" y="474" />
              <mxPoint x="270" y="600" />
            </Array>
          </mxGeometry>
        </mxCell>
        <mxCell id="X6bJpdG1tZHN0fjaIO-0-1" value="Entrega de comandos" style="edgeLabel;html=1;align=center;verticalAlign=middle;resizable=0;points=[];" connectable="0" vertex="1" parent="X6bJpdG1tZHN0fjaIO-0-0">
          <mxGeometry x="-0.0685" y="-3" relative="1" as="geometry">
            <mxPoint y="33" as="offset" />
          </mxGeometry>
        </mxCell>
        <mxCell id="X6bJpdG1tZHN0fjaIO-0-2" style="edgeStyle=orthogonalEdgeStyle;rounded=0;orthogonalLoop=1;jettySize=auto;html=1;exitX=0.996;exitY=0.398;exitDx=0;exitDy=0;entryX=0.5;entryY=1;entryDx=0;entryDy=0;exitPerimeter=0;" edge="1" parent="WIyWlLk6GJQsqaUBKTNV-1" source="X6bJpdG1tZHN0fjaIO-0-8" target="X6bJpdG1tZHN0fjaIO-0-21">
          <mxGeometry relative="1" as="geometry">
            <mxPoint x="588.5" y="313" as="targetPoint" />
            <Array as="points">
              <mxPoint x="491" y="450" />
              <mxPoint x="645" y="450" />
            </Array>
          </mxGeometry>
        </mxCell>
        <mxCell id="X6bJpdG1tZHN0fjaIO-0-3" value="Actualización de base de datos" style="edgeLabel;html=1;align=center;verticalAlign=middle;resizable=0;points=[];" connectable="0" vertex="1" parent="X6bJpdG1tZHN0fjaIO-0-2">
          <mxGeometry x="-0.0027" relative="1" as="geometry">
            <mxPoint x="3" y="-87" as="offset" />
          </mxGeometry>
        </mxCell>
        <mxCell id="X6bJpdG1tZHN0fjaIO-0-6" style="edgeStyle=orthogonalEdgeStyle;rounded=0;orthogonalLoop=1;jettySize=auto;html=1;entryX=0;entryY=0.5;entryDx=0;entryDy=0;exitX=0.955;exitY=0.299;exitDx=0;exitDy=0;exitPerimeter=0;" edge="1" parent="WIyWlLk6GJQsqaUBKTNV-1" source="X6bJpdG1tZHN0fjaIO-0-8" target="X6bJpdG1tZHN0fjaIO-0-21">
          <mxGeometry relative="1" as="geometry">
            <mxPoint x="357.46999999999986" y="230.89" as="sourcePoint" />
            <mxPoint x="495.06" y="329.11" as="targetPoint" />
          </mxGeometry>
        </mxCell>
        <mxCell id="X6bJpdG1tZHN0fjaIO-0-7" value="Solicitud de musica" style="edgeLabel;html=1;align=center;verticalAlign=middle;resizable=0;points=[];" connectable="0" vertex="1" parent="X6bJpdG1tZHN0fjaIO-0-6">
          <mxGeometry x="-0.0558" y="1" relative="1" as="geometry">
            <mxPoint y="-33" as="offset" />
          </mxGeometry>
        </mxCell>
        <mxCell id="X6bJpdG1tZHN0fjaIO-0-8" value="Reproductor de música" style="ellipse;whiteSpace=wrap;html=1;aspect=fixed;fillColor=#f8cecc;strokeColor=#b85450;" vertex="1" parent="WIyWlLk6GJQsqaUBKTNV-1">
          <mxGeometry x="381.5" y="405" width="110" height="110" as="geometry" />
        </mxCell>
        <mxCell id="X6bJpdG1tZHN0fjaIO-0-25" style="edgeStyle=orthogonalEdgeStyle;rounded=0;orthogonalLoop=1;jettySize=auto;html=1;entryX=0;entryY=0.5;entryDx=0;entryDy=0;exitX=0.5;exitY=0;exitDx=0;exitDy=0;" edge="1" parent="WIyWlLk6GJQsqaUBKTNV-1" source="X6bJpdG1tZHN0fjaIO-0-11" target="X6bJpdG1tZHN0fjaIO-0-8">
          <mxGeometry relative="1" as="geometry" />
        </mxCell>
        <mxCell id="X6bJpdG1tZHN0fjaIO-0-26" value="Comandos" style="edgeLabel;html=1;align=center;verticalAlign=middle;resizable=0;points=[];" connectable="0" vertex="1" parent="X6bJpdG1tZHN0fjaIO-0-25">
          <mxGeometry x="0.0553" y="1" relative="1" as="geometry">
            <mxPoint as="offset" />
          </mxGeometry>
        </mxCell>
        <mxCell id="X6bJpdG1tZHN0fjaIO-0-11" value="Usuario" style="rounded=1;whiteSpace=wrap;html=1;fillColor=#ffe6cc;strokeColor=#d79b00;" vertex="1" parent="WIyWlLk6GJQsqaUBKTNV-1">
          <mxGeometry x="115" y="570" width="120" height="60" as="geometry" />
        </mxCell>
        <mxCell id="X6bJpdG1tZHN0fjaIO-0-18" style="edgeStyle=orthogonalEdgeStyle;rounded=0;orthogonalLoop=1;jettySize=auto;html=1;entryX=0.5;entryY=1;entryDx=0;entryDy=0;exitX=0;exitY=0.5;exitDx=0;exitDy=0;" edge="1" parent="WIyWlLk6GJQsqaUBKTNV-1" source="X6bJpdG1tZHN0fjaIO-0-20" target="X6bJpdG1tZHN0fjaIO-0-8">
          <mxGeometry relative="1" as="geometry">
            <mxPoint x="416.5" y="513" as="targetPoint" />
            <mxPoint x="580" y="600" as="sourcePoint" />
          </mxGeometry>
        </mxCell>
        <mxCell id="X6bJpdG1tZHN0fjaIO-0-19" value="Gestión de usuarios" style="edgeLabel;html=1;align=center;verticalAlign=middle;resizable=0;points=[];" connectable="0" vertex="1" parent="X6bJpdG1tZHN0fjaIO-0-18">
          <mxGeometry x="-0.0909" y="-3" relative="1" as="geometry">
            <mxPoint x="-39" y="-27" as="offset" />
          </mxGeometry>
        </mxCell>
        <mxCell id="X6bJpdG1tZHN0fjaIO-0-20" value="Administración" style="rounded=1;whiteSpace=wrap;html=1;fillColor=#ffe6cc;strokeColor=#d79b00;" vertex="1" parent="WIyWlLk6GJQsqaUBKTNV-1">
          <mxGeometry x="585" y="570" width="120" height="60" as="geometry" />
        </mxCell>
        <mxCell id="X6bJpdG1tZHN0fjaIO-0-21" value="Base de Datos de Música" style="rounded=1;whiteSpace=wrap;html=1;fillColor=#ffe6cc;strokeColor=#d79b00;" vertex="1" parent="WIyWlLk6GJQsqaUBKTNV-1">
          <mxGeometry x="585" y="240" width="120" height="60" as="geometry" />
        </mxCell>
        <mxCell id="X6bJpdG1tZHN0fjaIO-0-28" style="edgeStyle=orthogonalEdgeStyle;rounded=0;orthogonalLoop=1;jettySize=auto;html=1;entryX=0.307;entryY=0.042;entryDx=0;entryDy=0;entryPerimeter=0;exitX=1;exitY=0.5;exitDx=0;exitDy=0;" edge="1" parent="WIyWlLk6GJQsqaUBKTNV-1" source="X6bJpdG1tZHN0fjaIO-0-27" target="X6bJpdG1tZHN0fjaIO-0-8">
          <mxGeometry relative="1" as="geometry">
            <mxPoint x="235" y="250" as="sourcePoint" />
            <mxPoint x="417.58000000000004" y="387.75" as="targetPoint" />
            <Array as="points">
              <mxPoint x="320" y="270" />
              <mxPoint x="320" y="370" />
              <mxPoint x="415" y="370" />
              <mxPoint x="415" y="390" />
            </Array>
          </mxGeometry>
        </mxCell>
        <mxCell id="X6bJpdG1tZHN0fjaIO-0-29" value="Entrega de Musica" style="edgeLabel;html=1;align=center;verticalAlign=middle;resizable=0;points=[];" connectable="0" vertex="1" parent="X6bJpdG1tZHN0fjaIO-0-28">
          <mxGeometry x="-0.0916" y="-2" relative="1" as="geometry">
            <mxPoint x="2" as="offset" />
          </mxGeometry>
        </mxCell>
        <mxCell id="X6bJpdG1tZHN0fjaIO-0-27" value="Proeevedor" style="rounded=1;whiteSpace=wrap;html=1;fillColor=#ffe6cc;strokeColor=#d79b00;" vertex="1" parent="WIyWlLk6GJQsqaUBKTNV-1">
          <mxGeometry x="115" y="240" width="120" height="60" as="geometry" />
        </mxCell>
        <mxCell id="X6bJpdG1tZHN0fjaIO-0-30" style="edgeStyle=orthogonalEdgeStyle;rounded=0;orthogonalLoop=1;jettySize=auto;html=1;entryX=0.173;entryY=0.111;entryDx=0;entryDy=0;entryPerimeter=0;" edge="1" parent="WIyWlLk6GJQsqaUBKTNV-1" target="X6bJpdG1tZHN0fjaIO-0-8">
          <mxGeometry relative="1" as="geometry">
            <mxPoint x="175" y="300" as="sourcePoint" />
            <mxPoint x="381.5" y="434.27" as="targetPoint" />
            <Array as="points">
              <mxPoint x="175" y="417" />
            </Array>
          </mxGeometry>
        </mxCell>
        <mxCell id="X6bJpdG1tZHN0fjaIO-0-33" value="Entrega de informacion" style="edgeLabel;html=1;align=center;verticalAlign=middle;resizable=0;points=[];" connectable="0" vertex="1" parent="X6bJpdG1tZHN0fjaIO-0-30">
          <mxGeometry x="-0.6101" y="-1" relative="1" as="geometry">
            <mxPoint x="1" y="-17" as="offset" />
          </mxGeometry>
        </mxCell>
        <mxCell id="X6bJpdG1tZHN0fjaIO-0-34" style="edgeStyle=orthogonalEdgeStyle;rounded=0;orthogonalLoop=1;jettySize=auto;html=1;exitX=1;exitY=0.5;exitDx=0;exitDy=0;entryX=1;entryY=0.5;entryDx=0;entryDy=0;" edge="1" parent="WIyWlLk6GJQsqaUBKTNV-1" source="X6bJpdG1tZHN0fjaIO-0-21" target="X6bJpdG1tZHN0fjaIO-0-8">
          <mxGeometry relative="1" as="geometry">
            <mxPoint x="505" y="460" as="targetPoint" />
            <Array as="points">
              <mxPoint x="725" y="270" />
              <mxPoint x="725" y="460" />
            </Array>
          </mxGeometry>
        </mxCell>
        <mxCell id="X6bJpdG1tZHN0fjaIO-0-35" value="Datos de musica" style="edgeLabel;html=1;align=center;verticalAlign=middle;resizable=0;points=[];" connectable="0" vertex="1" parent="X6bJpdG1tZHN0fjaIO-0-34">
          <mxGeometry x="0.3838" y="1" relative="1" as="geometry">
            <mxPoint x="102" y="-61" as="offset" />
          </mxGeometry>
        </mxCell>
        <mxCell id="X6bJpdG1tZHN0fjaIO-0-36" style="edgeStyle=orthogonalEdgeStyle;rounded=0;orthogonalLoop=1;jettySize=auto;html=1;entryX=0.5;entryY=0;entryDx=0;entryDy=0;exitX=0.5;exitY=0;exitDx=0;exitDy=0;" edge="1" parent="WIyWlLk6GJQsqaUBKTNV-1" source="X6bJpdG1tZHN0fjaIO-0-27" target="X6bJpdG1tZHN0fjaIO-0-8">
          <mxGeometry relative="1" as="geometry">
            <Array as="points">
              <mxPoint x="175" y="230" />
              <mxPoint x="436" y="230" />
            </Array>
          </mxGeometry>
        </mxCell>
        <mxCell id="X6bJpdG1tZHN0fjaIO-0-38" value="Actualización de contenido" style="edgeLabel;html=1;align=center;verticalAlign=middle;resizable=0;points=[];" connectable="0" vertex="1" parent="X6bJpdG1tZHN0fjaIO-0-36">
          <mxGeometry x="0.5449" y="1" relative="1" as="geometry">
            <mxPoint as="offset" />
          </mxGeometry>
        </mxCell>
        <mxCell id="X6bJpdG1tZHN0fjaIO-0-39" style="edgeStyle=orthogonalEdgeStyle;rounded=0;orthogonalLoop=1;jettySize=auto;html=1;entryX=0.753;entryY=0.951;entryDx=0;entryDy=0;entryPerimeter=0;exitX=0.5;exitY=0;exitDx=0;exitDy=0;" edge="1" parent="WIyWlLk6GJQsqaUBKTNV-1" source="X6bJpdG1tZHN0fjaIO-0-20" target="X6bJpdG1tZHN0fjaIO-0-8">
          <mxGeometry relative="1" as="geometry" />
        </mxCell>
        <mxCell id="X6bJpdG1tZHN0fjaIO-0-40" value="Mantenimiento de datos" style="edgeLabel;html=1;align=center;verticalAlign=middle;resizable=0;points=[];" connectable="0" vertex="1" parent="X6bJpdG1tZHN0fjaIO-0-39">
          <mxGeometry x="0.0576" y="-1" relative="1" as="geometry">
            <mxPoint x="5" as="offset" />
          </mxGeometry>
        </mxCell>
      </root>
    </mxGraphModel>
  </diagram>
</mxfile>
